<svg version="1.2" xmlns="http://www.w3.org/2000/svg" viewBox="0 0 400 400" width="400" height="400" fill="currentColor">
	<style>
		.s0 { fill: currentColor } 
	</style>
	<path id="Background" fill-rule="evenodd" class="s0" d="m262.61 45.74l24.58 36.83h46.74c8.9 0 16.07 7.17 16.07 16.07 0 8.91-7.17 16.07-16.07 16.07h-5.36v203.58c0 29.59-23.97 53.57-53.57 53.57h-150c-29.6 0-53.57-23.98-53.57-53.57v-203.58h-5.36c-8.9 0-16.07-7.16-16.07-16.07 0-8.9 7.17-16.07 16.07-16.07h46.74l24.58-36.9c6.96-10.38 18.68-16.67 31.2-16.67h62.75c12.52 0 24.24 6.29 31.27 16.74zm-98.44 17.81l-12.72 19.02h97.1l-12.72-19.02c-1.01-1.47-2.68-2.41-4.49-2.41h-62.75c-1.8 0-3.48 0.87-4.42 2.41zm-60.6 51.16v203.58c0 11.85 9.58 21.42 21.43 21.42h150c11.85 0 21.43-9.57 21.43-21.42v-203.58zm53.57 42.86v139.29c0 5.89-4.82 10.71-10.71 10.71-5.9 0-10.72-4.82-10.72-10.71v-139.29c0-5.89 4.82-10.71 10.72-10.71 5.89 0 10.71 4.82 10.71 10.71zm53.57 0v139.29c0 5.89-4.82 10.71-10.71 10.71-5.9 0-10.72-4.82-10.72-10.71v-139.29c0-5.89 4.82-10.71 10.72-10.71 5.89 0 10.71 4.82 10.71 10.71zm53.57 0v139.29c0 5.89-4.82 10.71-10.71 10.71-5.89 0-10.72-4.82-10.72-10.71v-139.29c0-5.89 4.83-10.71 10.72-10.71 5.89 0 10.71 4.82 10.71 10.71z"/>
</svg>