<svg version="1.2" xmlns="http://www.w3.org/2000/svg" viewBox="0 0 256 256" width="256" height="256">
	<style>
		.s0 { fill: #c7c5d6 } 
		.s1 { fill: #5c5a69 } 
	</style>
	<path id="Shape 1" fill-rule="evenodd" class="s0" d="m127.5 249c-67.19 0-121.5-54.31-121.5-121.5 0-67.19 54.31-121.5 121.5-121.5 67.19 0 121.5 54.31 121.5 121.5 0 67.19-54.31 121.5-121.5 121.5z"/>
	<path id="Background" fill-rule="evenodd" class="s1" d="m162.68 49c10.9 0 19.76 8.86 19.76 19.76v118.56c0 10.9-8.86 19.76-19.76 19.76h-88.92c-10.9 0-19.76-8.86-19.76-19.76v-118.56c0-10.9 8.86-19.76 19.76-19.76zm-79.04 113.62c0 2.72 2.22 4.94 4.94 4.94h59.28c2.72 0 4.94-2.22 4.94-4.94 0-13.65-11.05-24.7-24.7-24.7h-19.76c-13.65 0-24.7 11.05-24.7 24.7zm20.61-40.37c3.7 3.71 8.73 5.79 13.97 5.79 5.24 0 10.27-2.08 13.97-5.79 3.71-3.7 5.79-8.73 5.79-13.97 0-5.24-2.08-10.27-5.79-13.97-3.7-3.71-8.73-5.79-13.97-5.79-5.24 0-10.27 2.08-13.97 5.79-3.71 3.7-5.79 8.73-5.79 13.97 0 5.24 2.08 10.27 5.79 13.97zm97.95-28.79c0 2.72-2.22 4.94-4.94 4.94-2.72 0-4.94-2.22-4.94-4.94v-19.76c0-2.72 2.22-4.94 4.94-4.94 2.72 0 4.94 2.22 4.94 4.94zm0 19.76v19.76c0 2.72-2.22 4.94-4.94 4.94-2.72 0-4.94-2.22-4.94-4.94v-19.76c0-2.72 2.22-4.94 4.94-4.94 2.72 0 4.94 2.22 4.94 4.94zm0 59.28c0 2.72-2.22 4.94-4.94 4.94-2.72 0-4.94-2.22-4.94-4.94v-19.76c0-2.72 2.22-4.94 4.94-4.94 2.72 0 4.94 2.22 4.94 4.94z"/>
</svg>